<svg width="22" height="20" viewBox="0 0 22 20" fill="none" xmlns="http://www.w3.org/2000/svg">
<path d="M12.56 3.0751L12.5596 3.07557L11.7131 3.93649L11 4.66171L10.287 3.93649L9.44049 3.07557L9.43934 3.07439C7.60601 1.20363 4.68942 0.956565 2.77951 2.56277C0.532202 4.45625 0.411806 7.86078 2.42403 9.9144C2.42415 9.91453 2.42427 9.91465 2.42439 9.91477L10.7382 18.3877C10.8834 18.5355 11.1124 18.5355 11.2575 18.3877L19.5718 9.91434L19.572 9.91414C21.5881 7.86067 21.4679 4.45652 19.2208 2.56297L12.56 3.0751ZM12.56 3.0751C14.3983 1.20303 17.3111 0.956888 19.2206 2.56284L12.56 3.0751Z" stroke="#4D4D4D" stroke-width="2"/>
</svg>
