<svg width="29" height="24" viewBox="0 0 29 24" fill="none" xmlns="http://www.w3.org/2000/svg">
<path d="M1.03571 4.40816H27.9643C28.5363 4.40816 29 3.96961 29 3.42857V0.979592C29 0.438551 28.5363 0 27.9643 0H1.03571C0.463676 0 0 0.438551 0 0.979592V3.42857C0 3.96961 0.463676 4.40816 1.03571 4.40816ZM1.03571 14.2041H27.9643C28.5363 14.2041 29 13.7655 29 13.2245V10.7755C29 10.2345 28.5363 9.79592 27.9643 9.79592H1.03571C0.463676 9.79592 0 10.2345 0 10.7755V13.2245C0 13.7655 0.463676 14.2041 1.03571 14.2041ZM1.03571 24H27.9643C28.5363 24 29 23.5614 29 23.0204V20.5714C29 20.0304 28.5363 19.5918 27.9643 19.5918H1.03571C0.463676 19.5918 0 20.0304 0 20.5714V23.0204C0 23.5614 0.463676 24 1.03571 24Z" fill="#CA2128"/>
</svg>
