<svg width="35" height="33" viewBox="0 0 35 33" fill="none" xmlns="http://www.w3.org/2000/svg">
<path d="M17.5039 8.03922C12.5379 8.03922 8.53235 11.8167 8.53235 16.5C8.53235 21.1833 12.5379 24.9608 17.5039 24.9608C22.4699 24.9608 26.4755 21.1833 26.4755 16.5C26.4755 11.8167 22.4699 8.03922 17.5039 8.03922ZM17.5039 22.0006C14.2948 22.0006 11.6712 19.5338 11.6712 16.5C11.6712 13.4662 14.287 10.9994 17.5039 10.9994C20.7209 10.9994 23.3366 13.4662 23.3366 16.5C23.3366 19.5338 20.7131 22.0006 17.5039 22.0006ZM28.935 7.69313C28.935 8.79031 27.9981 9.66657 26.8424 9.66657C25.679 9.66657 24.7499 8.78294 24.7499 7.69313C24.7499 6.60331 25.6868 5.71968 26.8424 5.71968C27.9981 5.71968 28.935 6.60331 28.935 7.69313ZM34.877 9.69603C34.7443 7.05249 34.104 4.71087 32.0505 2.7816C30.0047 0.852337 27.5218 0.248522 24.7186 0.115977C21.8296 -0.0386589 13.1704 -0.0386589 10.2814 0.115977C7.48606 0.241158 5.00307 0.844974 2.94953 2.77424C0.895985 4.7035 0.263525 7.04513 0.122978 9.68866C-0.0409927 12.4132 -0.0409927 20.5794 0.122978 23.304C0.255717 25.9475 0.895985 28.2891 2.94953 30.2184C5.00307 32.1477 7.47825 32.7515 10.2814 32.884C13.1704 33.0387 21.8296 33.0387 24.7186 32.884C27.5218 32.7588 30.0047 32.155 32.0505 30.2184C34.0962 28.2891 34.7365 25.9475 34.877 23.304C35.041 20.5794 35.041 12.4206 34.877 9.69603ZM31.1447 26.2273C30.5357 27.6706 29.3567 28.7825 27.8185 29.3642C25.5151 30.2258 20.0494 30.0269 17.5039 30.0269C14.9585 30.0269 9.48494 30.2184 7.18935 29.3642C5.65895 28.7899 4.47992 27.678 3.86308 26.2273C2.94953 24.0551 3.16035 18.9005 3.16035 16.5C3.16035 14.0995 2.95733 8.93758 3.86308 6.77268C4.47211 5.32941 5.65114 4.2175 7.18935 3.63578C9.49275 2.77424 14.9585 2.97306 17.5039 2.97306C20.0494 2.97306 25.5229 2.7816 27.8185 3.63578C29.3489 4.21014 30.5279 5.32205 31.1447 6.77268C32.0583 8.94494 31.8475 14.0995 31.8475 16.5C31.8475 18.9005 32.0583 24.0624 31.1447 26.2273Z" fill="white"/>
</svg>
